<?xml version="1.0" encoding="UTF-8" standalone="no"?>
<!DOCTYPE svg PUBLIC "-//W3C//DTD SVG 1.1//EN" "http://www.w3.org/Graphics/SVG/1.1/DTD/svg11.dtd">
<!-- Generated by graphviz version 2.40.1 (20161225.0304)
 -->
<!-- Title: G Pages: 1 -->
<svg width="323pt" height="371pt" viewBox="0.00 0.00 322.74 371.23" xmlns="http://www.w3.org/2000/svg" xmlns:xlink="http://www.w3.org/1999/xlink">
<g id="graph0" class="graph" transform="scale(1 1) rotate(0) translate(4 367.2313)">
<title>G</title>
<polygon fill="#ffffff" stroke="transparent" points="-4,4 -4,-367.2313 318.737,-367.2313 318.737,4 -4,4"/>
<!-- Neo4j -->
<g id="node1" class="node">
<title>Neo4j</title>
<ellipse fill="none" stroke="#000000" cx="101.4852" cy="-345.2313" rx="34.7709" ry="18"/>
<text text-anchor="middle" x="101.4852" y="-341.0313" font-family="Times,serif" font-size="14.00" fill="#000000">Neo4j</text>
</g>
<!-- Json Representation of\nthe Property Graph -->
<g id="node2" class="node">
<title>Json Representation of\nthe Property Graph</title>
<ellipse fill="none" stroke="#000000" cx="101.4852" cy="-245.0156" rx="101.4705" ry="29.3315"/>
<text text-anchor="middle" x="101.4852" y="-249.2156" font-family="Times,serif" font-size="14.00" fill="#000000">Json Representation of</text>
<text text-anchor="middle" x="101.4852" y="-232.4156" font-family="Times,serif" font-size="14.00" fill="#000000">the Property Graph</text>
</g>
<!-- Neo4j&#45;&gt;Json Representation of\nthe Property Graph -->
<g id="edge1" class="edge">
<title>Neo4j-&gt;Json Representation of\nthe Property Graph</title>
<path fill="none" stroke="#000000" d="M101.4852,-326.8502C101.4852,-315.1189 101.4852,-299.4461 101.4852,-284.9572"/>
<polygon fill="#000000" stroke="#000000" points="104.9853,-284.6895 101.4852,-274.6896 97.9853,-284.6896 104.9853,-284.6895"/>
<text text-anchor="middle" x="161.9498" y="-296.6313" font-family="Times,serif" font-size="14.00" fill="#000000">APOC.export.json.all</text>
</g>
<!-- Expanded RDF Graph -->
<g id="node3" class="node">
<title>Expanded RDF Graph</title>
<ellipse fill="none" stroke="#000000" cx="101.4852" cy="-144.8" rx="97.2799" ry="18"/>
<text text-anchor="middle" x="101.4852" y="-140.6" font-family="Times,serif" font-size="14.00" fill="#000000">Expanded RDF Graph</text>
</g>
<!-- Json Representation of\nthe Property Graph&#45;&gt;Expanded RDF Graph -->
<g id="edge2" class="edge">
<title>Json Representation of\nthe Property Graph-&gt;Expanded RDF Graph</title>
<path fill="none" stroke="#000000" d="M101.4852,-215.4897C101.4852,-202.0046 101.4852,-186.1123 101.4852,-172.8153"/>
<polygon fill="#000000" stroke="#000000" points="104.9853,-172.8033 101.4852,-162.8033 97.9853,-172.8034 104.9853,-172.8033"/>
<text text-anchor="middle" x="139.7906" y="-185" font-family="Times,serif" font-size="14.00" fill="#000000">PREC (build)</text>
</g>
<!-- blanknode -->
<g id="node5" class="node">
<title>blanknode</title>
<polygon fill="#d3d3d3" stroke="#000000" points="212.4852,-89.8 211.9852,-89.3 212.4852,-88.8 212.9852,-89.3 212.4852,-89.8"/>
</g>
<!-- Expanded RDF Graph&#45;&gt;blanknode -->
<g id="edge4" class="edge">
<title>Expanded RDF Graph-&gt;blanknode</title>
<path fill="none" stroke="#000000" d="M135.392,-127.8466C165.9949,-112.5452 206.9751,-92.0551 211.9781,-89.5536"/>
</g>
<!-- Context -->
<g id="node4" class="node">
<title>Context</title>
<ellipse fill="none" stroke="#000000" cx="258.4852" cy="-144.8" rx="41.7327" ry="18"/>
<text text-anchor="middle" x="258.4852" y="-140.6" font-family="Times,serif" font-size="14.00" fill="#000000">Context</text>
</g>
<!-- Context&#45;&gt;blanknode -->
<g id="edge3" class="edge">
<title>Context-&gt;blanknode</title>
<path fill="none" stroke="#000000" d="M244.4338,-127.8466C232.1742,-113.0552 215.8961,-93.4153 212.9517,-89.8628"/>
</g>
<!-- Usable RDF Graph -->
<g id="node6" class="node">
<title>Usable RDF Graph</title>
<ellipse fill="none" stroke="#000000" cx="212.4852" cy="-18" rx="85.6744" ry="18"/>
<text text-anchor="middle" x="212.4852" y="-13.8" font-family="Times,serif" font-size="14.00" fill="#000000">Usable RDF Graph</text>
</g>
<!-- blanknode&#45;&gt;Usable RDF Graph -->
<g id="edge5" class="edge">
<title>blanknode-&gt;Usable RDF Graph</title>
<path fill="none" stroke="#000000" d="M212.4852,-88.4993C212.4852,-84.2532 212.4852,-63.8961 212.4852,-46.1417"/>
<polygon fill="#000000" stroke="#000000" points="215.9853,-46.1303 212.4852,-36.1303 208.9853,-46.1303 215.9853,-46.1303"/>
<text text-anchor="middle" x="263.6111" y="-58.2" font-family="Times,serif" font-size="14.00" fill="#000000">PREC (transform)</text>
</g>
</g>
</svg>