<?xml version="1.0" encoding="UTF-8" standalone="no"?>
<!DOCTYPE svg PUBLIC "-//W3C//DTD SVG 1.1//EN"
 "http://www.w3.org/Graphics/SVG/1.1/DTD/svg11.dtd">
<!-- Generated by graphviz version 2.40.1 (20161225.0304)
 -->
<!-- Title: %0 Pages: 1 -->
<svg width="97pt" height="144pt"
 viewBox="0.00 0.00 97.24 144.00" xmlns="http://www.w3.org/2000/svg" xmlns:xlink="http://www.w3.org/1999/xlink">
<g id="graph0" class="graph" transform="scale(1 1) rotate(0) translate(4 140)">
<title>%0</title>
<polygon fill="#ffffff" stroke="transparent" points="-4,4 -4,-140 93.2382,-140 93.2382,4 -4,4"/>
<!-- n9 -->
<g id="node1" class="node">
<title>n9</title>
<polygon fill="none" stroke="#000000" points="89.3576,-135.8019 -.1194,-135.8019 -.1194,-94.5981 89.3576,-94.5981 89.3576,-135.8019"/>
<text text-anchor="middle" x="44.6191" y="-119.4" font-family="Times,serif" font-size="14.00" fill="#000000">:Person</text>
<text text-anchor="middle" x="44.6191" y="-102.6" font-family="Times,serif" font-size="14.00" fill="#000000">name: &quot;Ann&quot;</text>
</g>
<!-- n10 -->
<g id="node2" class="node">
<title>n10</title>
<polygon fill="none" stroke="#000000" points="89.0731,-41.4019 .1651,-41.4019 .1651,-.1981 89.0731,-.1981 89.0731,-41.4019"/>
<text text-anchor="middle" x="44.6191" y="-25" font-family="Times,serif" font-size="14.00" fill="#000000">:Person</text>
<text text-anchor="middle" x="44.6191" y="-8.2" font-family="Times,serif" font-size="14.00" fill="#000000">name: &quot;Dan&quot;</text>
</g>
<!-- n9&#45;&gt;n10 -->
<g id="edge1" class="edge">
<title>n9&#45;&gt;n10</title>
<path fill="none" stroke="#000000" d="M44.6191,-94.2496C44.6191,-81.7835 44.6191,-65.7355 44.6191,-51.8214"/>
<polygon fill="#000000" stroke="#000000" points="48.1192,-51.6918 44.6191,-41.6919 41.1192,-51.6919 48.1192,-51.6918"/>
<text text-anchor="middle" x="62.1156" y="-63.8" font-family="Times,serif" font-size="14.00" fill="#000000">:Likes</text>
</g>
</g>
</svg>
