<?xml version="1.0" encoding="UTF-8" standalone="no"?>
<!DOCTYPE svg PUBLIC "-//W3C//DTD SVG 1.1//EN"
 "http://www.w3.org/Graphics/SVG/1.1/DTD/svg11.dtd">
<!-- Generated by graphviz version 2.40.1 (20161225.0304)
 -->
<!-- Title: %0 Pages: 1 -->
<svg width="352pt" height="245pt"
 viewBox="0.00 0.00 351.91 244.80" xmlns="http://www.w3.org/2000/svg" xmlns:xlink="http://www.w3.org/1999/xlink">
<g id="graph0" class="graph" transform="scale(1 1) rotate(0) translate(4 240.8)">
<title>%0</title>
<polygon fill="#ffffff" stroke="transparent" points="-4,4 -4,-240.8 347.9076,-240.8 347.9076,4 -4,4"/>
<!-- n1 -->
<g id="node1" class="node">
<title>n1</title>
<polygon fill="none" stroke="#000000" points="231.9517,-236.9003 88.5993,-236.9003 88.5993,-161.4997 231.9517,-161.4997 231.9517,-236.9003"/>
<text text-anchor="middle" x="160.2755" y="-220.2" font-family="Times,serif" font-size="14.00" fill="#000000">:Person</text>
<text text-anchor="middle" x="160.2755" y="-203.4" font-family="Times,serif" font-size="14.00" fill="#000000">givenname: &quot;Sophie&quot;</text>
<text text-anchor="middle" x="160.2755" y="-186.6" font-family="Times,serif" font-size="14.00" fill="#000000">familyname: &quot;Dupont&quot;</text>
<text text-anchor="middle" x="160.2755" y="-169.8" font-family="Times,serif" font-size="14.00" fill="#000000">age: 37</text>
</g>
<!-- n2 -->
<g id="node2" class="node">
<title>n2</title>
<polygon fill="none" stroke="#000000" points="140.3272,-75.3003 .2238,-75.3003 .2238,.1003 140.3272,.1003 140.3272,-75.3003"/>
<text text-anchor="middle" x="70.2755" y="-58.6" font-family="Times,serif" font-size="14.00" fill="#000000">:Person</text>
<text text-anchor="middle" x="70.2755" y="-41.8" font-family="Times,serif" font-size="14.00" fill="#000000">givenname: &quot;Michel&quot;</text>
<text text-anchor="middle" x="70.2755" y="-25" font-family="Times,serif" font-size="14.00" fill="#000000">familyname: &quot;Durant&quot;</text>
<text text-anchor="middle" x="70.2755" y="-8.2" font-family="Times,serif" font-size="14.00" fill="#000000">age: 42</text>
</g>
<!-- n1&#45;&gt;n2 -->
<g id="edge1" class="edge">
<title>n1&#45;&gt;n2</title>
<path fill="none" stroke="#000000" d="M139.1745,-161.312C126.3106,-138.2141 109.7761,-108.5255 96.1293,-84.0219"/>
<polygon fill="#000000" stroke="#000000" points="99.1677,-82.2841 91.2443,-75.2506 93.0522,-85.6901 99.1677,-82.2841"/>
<text text-anchor="middle" x="167.0636" y="-122.6" font-family="Times,serif" font-size="14.00" fill="#000000">:Married</text>
<text text-anchor="middle" x="167.0636" y="-105.8" font-family="Times,serif" font-size="14.00" fill="#000000">since: &quot;2010&quot;</text>
</g>
<!-- n3 -->
<g id="node3" class="node">
<title>n3</title>
<polygon fill="none" stroke="#000000" points="344.0399,-58.2019 158.5111,-58.2019 158.5111,-16.9981 344.0399,-16.9981 344.0399,-58.2019"/>
<text text-anchor="middle" x="251.2755" y="-41.8" font-family="Times,serif" font-size="14.00" fill="#000000">:Company</text>
<text text-anchor="middle" x="251.2755" y="-25" font-family="Times,serif" font-size="14.00" fill="#000000">name: &quot;ACME Incorporation&quot;</text>
</g>
<!-- n1&#45;&gt;n3 -->
<g id="edge2" class="edge">
<title>n1&#45;&gt;n3</title>
<path fill="none" stroke="#000000" d="M196.6236,-161.355C201.2072,-155.641 205.5778,-149.6336 209.2755,-143.6 223.8301,-119.851 235.074,-90.1839 242.2493,-68.28"/>
<polygon fill="#000000" stroke="#000000" points="245.6604,-69.102 245.3492,-58.5117 238.9883,-66.9846 245.6604,-69.102"/>
<text text-anchor="middle" x="279.3939" y="-131" font-family="Times,serif" font-size="14.00" fill="#000000">:WorksAt</text>
<text text-anchor="middle" x="279.3939" y="-114.2" font-family="Times,serif" font-size="14.00" fill="#000000">since: &quot;2007&quot;</text>
<text text-anchor="middle" x="279.3939" y="-97.4" font-family="Times,serif" font-size="14.00" fill="#000000">salary: &quot;50000$&quot;</text>
</g>
</g>
</svg>
