<?xml version="1.0" encoding="UTF-8" standalone="no"?>
<!DOCTYPE svg PUBLIC "-//W3C//DTD SVG 1.1//EN" "http://www.w3.org/Graphics/SVG/1.1/DTD/svg11.dtd">
<!-- Generated by graphviz version 2.40.1 (20161225.0304)
 -->
<!-- Title: G Pages: 1 -->
<svg width="314pt" height="374pt" viewBox="0.00 0.00 313.97 374.45" xmlns="http://www.w3.org/2000/svg" xmlns:xlink="http://www.w3.org/1999/xlink">
<g id="graph0" class="graph" transform="scale(1 1) rotate(0) translate(4 370.4548)">
<title>G</title>
<polygon fill="#ffffff" stroke="transparent" points="-4,4 -4,-370.4548 309.9742,-370.4548 309.9742,4 -4,4"/>
<!-- Neo4j -->
<g id="node1" class="node">
<title>Neo4j</title>
<ellipse fill="none" stroke="#000000" cx="35.358" cy="-348.4548" rx="34.7709" ry="18"/>
<text text-anchor="middle" x="35.358" y="-344.2548" font-family="Times,serif" font-size="14.00" fill="#000000">Neo4j</text>
</g>
<!-- Json Representation of\nthe Property Graph -->
<g id="node3" class="node">
<title>Json Representation of\nthe Property Graph</title>
<ellipse fill="none" stroke="#000000" cx="107.358" cy="-238.2274" rx="75.9445" ry="22.7556"/>
<text text-anchor="middle" x="107.358" y="-241.2274" font-family="Times,serif" font-size="10.00" fill="#000000">Json Representation of</text>
<text text-anchor="middle" x="107.358" y="-229.2274" font-family="Times,serif" font-size="10.00" fill="#000000">the Property Graph</text>
</g>
<!-- Neo4j&#45;&gt;Json Representation of\nthe Property Graph -->
<g id="edge2" class="edge">
<title>Neo4j-&gt;Json Representation of\nthe Property Graph</title>
<path fill="none" stroke="#000000" d="M17.91,-332.4605C12.8277,-326.7067 7.9281,-319.8063 5.2598,-312.4548 .1648,-298.4175 -3.1233,-291.2131 5.2598,-278.8548 12.4003,-268.3283 22.7472,-260.5291 34.1458,-254.7507"/>
<polygon fill="#000000" stroke="#000000" points="35.8003,-257.8439 43.4716,-250.5362 32.9176,-251.465 35.8003,-257.8439"/>
<text text-anchor="middle" x="45.4071" y="-299.8548" font-family="Times,serif" font-size="14.00" fill="#000000">APOC.export.</text>
<text text-anchor="middle" x="45.4071" y="-283.0548" font-family="Times,serif" font-size="14.00" fill="#000000">json.all</text>
</g>
<!-- Neo4j&#45;&gt;Json Representation of\nthe Property Graph -->
<g id="edge3" class="edge">
<title>Neo4j-&gt;Json Representation of\nthe Property Graph</title>
<path fill="none" stroke="#000000" d="M59.7209,-335.5487C68.9096,-329.6069 78.7316,-321.7867 85.358,-312.4548 93.9775,-300.316 99.2567,-284.7854 102.4724,-271.0707"/>
<polyline fill="none" stroke="#000000" points="104.5505,-261.0232 102.5251,-270.8159 "/>
<path fill="none" stroke="#000000" d="M98.6414,-264.9068C100.2365,-258.3783 109.5396,-260.4038 108.4342,-266.9323"/>
<text text-anchor="middle" x="119.9639" y="-291.4548" font-family="Times,serif" font-size="14.00" fill="#000000">Cypher</text>
</g>
<!-- TinkerPop -->
<g id="node2" class="node">
<title>TinkerPop</title>
<ellipse fill="none" stroke="#000000" cx="171.358" cy="-348.4548" rx="51.6073" ry="18"/>
<text text-anchor="middle" x="171.358" y="-344.2548" font-family="Times,serif" font-size="14.00" fill="#000000">TinkerPop</text>
</g>
<!-- TinkerPop&#45;&gt;Json Representation of\nthe Property Graph -->
<g id="edge1" class="edge">
<title>TinkerPop-&gt;Json Representation of\nthe Property Graph</title>
<path fill="none" stroke="#000000" d="M168.1842,-330.2606C165.0375,-315.5744 159.2264,-294.8042 149.358,-278.8548 146.8225,-274.757 143.782,-270.7811 140.5111,-267.023"/>
<polyline fill="none" stroke="#000000" points="133.5617,-259.6457 140.4185,-266.9247 "/>
<path fill="none" stroke="#000000" d="M133.3505,-266.7136C128.9613,-261.8609 135.8764,-255.0041 140.6296,-259.8568"/>
<text text-anchor="middle" x="186.6848" y="-291.4548" font-family="Times,serif" font-size="14.00" fill="#000000">Gremlin</text>
</g>
<!-- Expanded RDF Graph -->
<g id="node4" class="node">
<title>Expanded RDF Graph</title>
<ellipse fill="none" stroke="#000000" cx="107.358" cy="-144.8" rx="97.2799" ry="18"/>
<text text-anchor="middle" x="107.358" y="-140.6" font-family="Times,serif" font-size="14.00" fill="#000000">Expanded RDF Graph</text>
</g>
<!-- Json Representation of\nthe Property Graph&#45;&gt;Expanded RDF Graph -->
<g id="edge4" class="edge">
<title>Json Representation of\nthe Property Graph-&gt;Expanded RDF Graph</title>
<path fill="none" stroke="#000000" d="M107.358,-215.133C107.358,-202.4269 107.358,-186.557 107.358,-173.1093"/>
<polyline fill="none" stroke="#000000" points="107.358,-162.9505 107.3581,-172.9505 "/>
<path fill="none" stroke="#000000" d="M102.358,-167.9506C102.608,-161.2839 112.108,-161.2838 112.358,-167.9505"/>
<text text-anchor="middle" x="145.6634" y="-185" font-family="Times,serif" font-size="14.00" fill="#000000">PREC (build)</text>
</g>
<!-- blanknode -->
<g id="node6" class="node">
<title>blanknode</title>
<polygon fill="#d3d3d3" stroke="#000000" points="185.358,-89.8 184.858,-89.3 185.358,-88.8 185.858,-89.3 185.358,-89.8"/>
</g>
<!-- Expanded RDF Graph&#45;&gt;blanknode -->
<g id="edge6" class="edge">
<title>Expanded RDF Graph-&gt;blanknode</title>
<path fill="none" stroke="#000000" d="M132.0377,-127.2395C153.461,-111.9959 181.5792,-91.9888 185.0102,-89.5474"/>
</g>
<!-- Context -->
<g id="node5" class="node">
<title>Context</title>
<ellipse fill="none" stroke="#000000" cx="264.358" cy="-144.8" rx="41.7327" ry="18"/>
<text text-anchor="middle" x="264.358" y="-140.6" font-family="Times,serif" font-size="14.00" fill="#000000">Context</text>
</g>
<!-- Context&#45;&gt;blanknode -->
<g id="edge5" class="edge">
<title>Context-&gt;blanknode</title>
<path fill="none" stroke="#000000" d="M242.3521,-129.3402C220.4376,-113.9445 189.5203,-92.2242 185.7413,-89.5693"/>
</g>
<!-- Usable RDF Graph -->
<g id="node7" class="node">
<title>Usable RDF Graph</title>
<ellipse fill="none" stroke="#000000" cx="185.358" cy="-18" rx="85.6744" ry="18"/>
<text text-anchor="middle" x="185.358" y="-13.8" font-family="Times,serif" font-size="14.00" fill="#000000">Usable RDF Graph</text>
</g>
<!-- blanknode&#45;&gt;Usable RDF Graph -->
<g id="edge7" class="edge">
<title>blanknode-&gt;Usable RDF Graph</title>
<path fill="none" stroke="#000000" d="M185.358,-88.4993C185.358,-84.2532 185.358,-63.8961 185.358,-46.1417"/>
<polygon fill="#000000" stroke="#000000" points="188.8581,-46.1303 185.358,-36.1303 181.8581,-46.1303 188.8581,-46.1303"/>
<text text-anchor="middle" x="236.4839" y="-58.2" font-family="Times,serif" font-size="14.00" fill="#000000">PREC (transform)</text>
</g>
</g>
</svg>