<?xml version="1.0" encoding="UTF-8" standalone="no"?>
<!DOCTYPE svg PUBLIC "-//W3C//DTD SVG 1.1//EN" "http://www.w3.org/Graphics/SVG/1.1/DTD/svg11.dtd">
<!-- Generated by graphviz version 2.40.1 (20161225.0304)
 -->
<!-- Title: G Pages: 1 -->
<svg width="369pt" height="407pt" viewBox="0.00 0.00 369.34 406.54" xmlns="http://www.w3.org/2000/svg" xmlns:xlink="http://www.w3.org/1999/xlink">
<g id="graph0" class="graph" transform="scale(1 1) rotate(0) translate(4 402.541)">
<title>G</title>
<polygon fill="#ffffff" stroke="transparent" points="-4,4 -4,-402.541 365.3381,-402.541 365.3381,4 -4,4"/>
<!-- Neo4j -->
<g id="node1" class="node">
<title>Neo4j</title>
<ellipse fill="none" stroke="#000000" cx="131.7219" cy="-380.541" rx="34.7709" ry="18"/>
<text text-anchor="middle" x="131.7219" y="-376.341" font-family="Times,serif" font-size="14.00" fill="#000000">Neo4j</text>
</g>
<!-- JSONREP -->
<g id="node3" class="node">
<title>JSONREP</title>
<ellipse fill="none" stroke="#000000" cx="75.7219" cy="-270.3135" rx="75.9445" ry="22.7556"/>
<text text-anchor="middle" x="75.7219" y="-273.3135" font-family="Times,serif" font-size="10.00" fill="#000000">Json Representation of</text>
<text text-anchor="middle" x="75.7219" y="-261.3135" font-family="Times,serif" font-size="10.00" fill="#000000">the Property Graph</text>
</g>
<!-- Neo4j&#45;&gt;JSONREP -->
<g id="edge2" class="edge">
<title>Neo4j-&gt;JSONREP</title>
<path fill="none" stroke="#000000" d="M99.7338,-373.5115C73.0044,-366.9129 37.9571,-356.3155 29.6237,-344.541 20.9968,-332.3516 23.4773,-324.5507 29.6237,-310.941 31.6051,-306.5538 34.3202,-302.4509 37.4489,-298.6685"/>
<polygon fill="#000000" stroke="#000000" points="40.025,-301.0383 44.3492,-291.366 34.9371,-296.2306 40.025,-301.0383"/>
<text text-anchor="middle" x="69.771" y="-331.941" font-family="Times,serif" font-size="14.00" fill="#000000">APOC.export.</text>
<text text-anchor="middle" x="69.771" y="-315.141" font-family="Times,serif" font-size="14.00" fill="#000000">json.all</text>
</g>
<!-- Neo4j&#45;&gt;JSONREP -->
<g id="edge3" class="edge">
<title>Neo4j-&gt;JSONREP</title>
<path fill="none" stroke="#000000" d="M128.0932,-362.612C124.6825,-348.0796 118.7383,-327.387 109.7219,-310.941 107.7875,-307.4125 105.5213,-303.9036 103.0931,-300.5104"/>
<polygon fill="#000000" stroke="#000000" points="105.6965,-298.1547 96.8206,-292.3694 100.1515,-302.4271 105.6965,-298.1547"/>
<text text-anchor="middle" x="144.3278" y="-323.541" font-family="Times,serif" font-size="14.00" fill="#000000">Cypher</text>
</g>
<!-- RDFREP -->
<g id="node4" class="node">
<title>RDFREP</title>
<ellipse fill="none" stroke="#000000" cx="187.7219" cy="-172.2587" rx="72.2662" ry="22.7556"/>
<text text-anchor="middle" x="187.7219" y="-175.2587" font-family="Times,serif" font-size="10.00" fill="#000000">Structural description</text>
<text text-anchor="middle" x="187.7219" y="-163.2587" font-family="Times,serif" font-size="10.00" fill="#000000">of the PG in RDF</text>
</g>
<!-- Neo4j&#45;&gt;RDFREP -->
<g id="edge4" class="edge">
<title>Neo4j-&gt;RDFREP</title>
<path fill="none" stroke="#000000" d="M151.8125,-365.6997C158.2812,-359.8483 164.7876,-352.5937 168.7219,-344.541 190.4498,-300.0693 192.1004,-241.6223 190.5038,-205.5178"/>
<polyline fill="none" stroke="#000000" points="189.9226,-195.0705 190.4781,-205.0551 "/>
<path fill="none" stroke="#000000" d="M185.2081,-200.3405C185.0874,-193.6842 194.5727,-193.1287 195.1927,-199.7851"/>
<text text-anchor="middle" x="210.3278" y="-266.1135" font-family="Times,serif" font-size="14.00" fill="#000000">Cypher</text>
</g>
<!-- TinkerPop -->
<g id="node2" class="node">
<title>TinkerPop</title>
<ellipse fill="none" stroke="#000000" cx="264.7219" cy="-380.541" rx="51.6073" ry="18"/>
<text text-anchor="middle" x="264.7219" y="-376.341" font-family="Times,serif" font-size="14.00" fill="#000000">TinkerPop</text>
</g>
<!-- TinkerPop&#45;&gt;RDFREP -->
<g id="edge1" class="edge">
<title>TinkerPop-&gt;RDFREP</title>
<path fill="none" stroke="#000000" d="M262.5763,-362.3399C259.0615,-336.1928 250.8007,-286.8392 234.7219,-247.6861 228.2792,-231.9974 218.7039,-215.8751 209.874,-202.5841"/>
<polyline fill="none" stroke="#000000" points="204.2196,-194.2919 209.8534,-202.5539 "/>
<path fill="none" stroke="#000000" d="M202.9055,-201.2398C199.3562,-195.7318 207.205,-190.098 211.1675,-195.6059"/>
<text text-anchor="middle" x="272.0487" y="-266.1135" font-family="Times,serif" font-size="14.00" fill="#000000">Gremlin</text>
</g>
<!-- JSONREP&#45;&gt;RDFREP -->
<g id="edge5" class="edge">
<title>JSONREP-&gt;RDFREP</title>
<path fill="none" stroke="#000000" d="M93.3042,-248.1044C102.7076,-236.9134 114.8429,-223.5033 127.0529,-212.8861 132.7745,-207.911 139.1342,-203.0429 145.5217,-198.5033"/>
<polyline fill="none" stroke="#000000" points="154.1917,-192.5375 145.9536,-198.2062 "/>
<path fill="none" stroke="#000000" d="M147.2383,-191.2528C152.8721,-187.4737 158.2574,-195.7118 152.907,-199.4909"/>
<text text-anchor="middle" x="151.0564" y="-217.0861" font-family="Times,serif" font-size="14.00" fill="#000000">PREC-0</text>
</g>
<!-- blanknode -->
<g id="node6" class="node">
<title>blanknode</title>
<polygon fill="#d3d3d3" stroke="#000000" points="253.7219,-112.6313 253.2219,-112.1313 253.7219,-111.6313 254.2219,-112.1313 253.7219,-112.6313"/>
</g>
<!-- RDFREP&#45;&gt;blanknode -->
<g id="edge7" class="edge">
<title>RDFREP-&gt;blanknode</title>
<path fill="none" stroke="#000000" d="M211.5495,-150.5513C229.2728,-134.405 250.8305,-114.7654 253.456,-112.3735"/>
</g>
<!-- Context -->
<g id="node5" class="node">
<title>Context</title>
<ellipse fill="none" stroke="#000000" cx="319.7219" cy="-172.2587" rx="41.7327" ry="18"/>
<text text-anchor="middle" x="319.7219" y="-168.0587" font-family="Times,serif" font-size="14.00" fill="#000000">Context</text>
</g>
<!-- Context&#45;&gt;blanknode -->
<g id="edge6" class="edge">
<title>Context-&gt;blanknode</title>
<path fill="none" stroke="#000000" d="M301.6872,-155.8286C283.3671,-139.1387 257.2402,-115.3365 254.0459,-112.4264"/>
</g>
<!-- Idiomatic\nRDF Graph -->
<g id="node7" class="node">
<title>Idiomatic\nRDF Graph</title>
<ellipse fill="none" stroke="#000000" cx="253.7219" cy="-29.4156" rx="57.5529" ry="29.3315"/>
<text text-anchor="middle" x="253.7219" y="-33.6156" font-family="Times,serif" font-size="14.00" fill="#000000">Idiomatic</text>
<text text-anchor="middle" x="253.7219" y="-16.8156" font-family="Times,serif" font-size="14.00" fill="#000000">RDF Graph</text>
</g>
<!-- blanknode&#45;&gt;Idiomatic\nRDF Graph -->
<g id="edge8" class="edge">
<title>blanknode-&gt;Idiomatic\nRDF Graph</title>
<path fill="none" stroke="#000000" d="M253.7219,-111.6031C253.7219,-108.1742 253.7219,-88.6117 253.7219,-69.4338"/>
<polygon fill="#000000" stroke="#000000" points="257.222,-69.2267 253.7219,-59.2267 250.222,-69.2268 257.222,-69.2267"/>
<text text-anchor="middle" x="278.2247" y="-81.0313" font-family="Times,serif" font-size="14.00" fill="#000000">PREC-C</text>
</g>
</g>
</svg>